<svg width="43" height="44" viewBox="0 0 43 44" fill="none" xmlns="http://www.w3.org/2000/svg">
<path d="M28.8827 5.11951H26.7353V0.827026H0.825867V15.6067H26.7353V11.3308H28.8827V5.11951Z" fill="#9CF0E8"/>
<path d="M27.2308 15.7805V12.0008H29.0644C29.4278 12.0008 29.7252 11.703 29.7252 11.3391V5.10301C29.7252 4.7391 29.4278 4.44135 29.0644 4.44135H27.2308V0.661654C27.2308 0.297744 26.9335 0 26.5701 0H0.916725C0.553316 0 0.255981 0.297744 0.255981 0.661654V15.7805C0.255981 16.1444 0.553316 16.4421 0.916725 16.4421H26.5701C26.9335 16.4421 27.2308 16.1444 27.2308 15.7805ZM25.9094 11.3391V15.1188H1.56921V1.31504H25.9094V5.09474C25.9094 5.45865 26.2067 5.75639 26.5701 5.75639H28.4037V10.6774H26.5701C26.2067 10.6857 25.9094 10.9752 25.9094 11.3391Z" fill="#00B0AD"/>
<path d="M4.07177 2.81201C3.70836 2.81201 3.41103 3.10976 3.41103 3.47367V12.9684C3.41103 13.3323 3.70836 13.6301 4.07177 13.6301C4.43518 13.6301 4.73251 13.3323 4.73251 12.9684V3.47367C4.73251 3.10976 4.43518 2.81201 4.07177 2.81201Z" fill="white"/>
<path d="M7.30117 2.81201C6.93776 2.81201 6.64043 3.10976 6.64043 3.47367V12.9684C6.64043 13.3323 6.93776 13.6301 7.30117 13.6301C7.66458 13.6301 7.96191 13.3323 7.96191 12.9684V3.47367C7.95366 3.10976 7.66458 2.81201 7.30117 2.81201Z" fill="white"/>
<path d="M10.5223 2.81201C10.1589 2.81201 9.86154 3.10976 9.86154 3.47367V12.9684C9.86154 13.3323 10.1589 13.6301 10.5223 13.6301C10.8857 13.6301 11.183 13.3323 11.183 12.9684V3.47367C11.1748 3.10976 10.8857 2.81201 10.5223 2.81201Z" fill="white"/>
<path d="M13.7434 2.81201C13.38 2.81201 13.0827 3.10976 13.0827 3.47367V12.9684C13.0827 13.3323 13.38 13.6301 13.7434 13.6301C14.1068 13.6301 14.4042 13.3323 14.4042 12.9684V3.47367C14.4042 3.10976 14.1068 2.81201 13.7434 2.81201Z" fill="white"/>
<path d="M16.9645 2.81201C16.6011 2.81201 16.3038 3.10976 16.3038 3.47367V12.9684C16.3038 13.3323 16.6011 13.6301 16.9645 13.6301C17.328 13.6301 17.6253 13.3323 17.6253 12.9684V3.47367C17.6253 3.10976 17.328 2.81201 16.9645 2.81201Z" fill="white"/>
<path d="M20.1857 2.81201C19.8223 2.81201 19.5249 3.10976 19.5249 3.47367V12.9684C19.5249 13.3323 19.8223 13.6301 20.1857 13.6301C20.5491 13.6301 20.8464 13.3323 20.8464 12.9684V3.47367C20.8464 3.10976 20.5491 2.81201 20.1857 2.81201Z" fill="white"/>
<path d="M23.4068 2.81201C23.0434 2.81201 22.746 3.10976 22.746 3.47367V12.9684C22.746 13.3323 23.0434 13.6301 23.4068 13.6301C23.7702 13.6301 24.0675 13.3323 24.0675 12.9684V3.47367C24.0675 3.10976 23.7702 2.81201 23.4068 2.81201Z" fill="white"/>
<path d="M41.5938 31.9992H39.7602V28.2195C39.7602 27.8556 39.4629 27.5579 39.0995 27.5579H13.4461C13.0827 27.5579 12.7853 27.8556 12.7853 28.2195V43.3383C12.7853 43.7022 13.0827 44 13.4461 44H39.0995C39.4629 44 39.7602 43.7022 39.7602 43.3383V39.5586H41.5938C41.9572 39.5586 42.2545 39.2609 42.2545 38.897V32.6609C42.2545 32.297 41.9572 31.9992 41.5938 31.9992ZM40.933 38.2436H39.0995C38.7361 38.2436 38.4387 38.5413 38.4387 38.9052V42.6849H14.1068V28.8812H38.447V32.6609C38.447 33.0248 38.7443 33.3225 39.1077 33.3225H40.9413V38.2436H40.933Z" fill="#00B0AD"/>
<path d="M16.6011 30.3699C16.2377 30.3699 15.9404 30.6676 15.9404 31.0315V40.5263C15.9404 40.8902 16.2377 41.1879 16.6011 41.1879C16.9645 41.1879 17.2619 40.8902 17.2619 40.5263V31.0315C17.2619 30.6676 16.9645 30.3699 16.6011 30.3699Z" fill="#9CF0E8"/>
<path d="M19.8305 30.3699C19.4671 30.3699 19.1698 30.6676 19.1698 31.0315V40.5263C19.1698 40.8902 19.4671 41.1879 19.8305 41.1879C20.1939 41.1879 20.4913 40.8902 20.4913 40.5263V31.0315C20.483 30.6676 20.1939 30.3699 19.8305 30.3699Z" fill="#9CF0E8"/>
<path d="M39.4876 17.4015V8.23762C39.4876 7.87371 39.1903 7.57596 38.8269 7.57596H34.5403L35.5149 6.60002C35.771 6.34363 35.771 5.92183 35.5149 5.66544C35.2589 5.40905 34.8377 5.40905 34.5816 5.66544L32.4838 7.77446C32.2277 8.03085 32.2277 8.45266 32.4838 8.70905L34.5816 10.8098C34.7138 10.9421 34.879 11 35.0441 11C35.2093 11 35.3828 10.9339 35.5067 10.8098C35.7627 10.5534 35.7627 10.1316 35.5067 9.87521L34.5321 8.89927H38.1662V17.6827V23.9602C38.1662 24.3241 38.4635 24.6218 38.8269 24.6218C39.1903 24.6218 39.4876 24.3241 39.4876 23.9602V17.4015Z" fill="#00B0AD"/>
<path d="M3.4193 26.524V35.6879C3.4193 36.0518 3.71663 36.3496 4.08004 36.3496H8.36662L7.39202 37.3255C7.13598 37.5819 7.13598 38.0037 7.39202 38.2601C7.64806 38.5165 8.06928 38.5165 8.32532 38.2601L10.4232 36.1593C10.6792 35.903 10.6792 35.4812 10.4232 35.2248L8.32532 33.124C8.19317 32.9917 8.02799 32.9338 7.8628 32.9338C7.69761 32.9338 7.52417 32.9999 7.40028 33.124C7.14424 33.3804 7.14424 33.8022 7.40028 34.0586L8.37488 35.0345H4.74078V26.2428V19.9654C4.74078 19.6015 4.44345 19.3037 4.08004 19.3037C3.71663 19.3037 3.4193 19.6015 3.4193 19.9654V26.524Z" fill="#00B0AD"/>
</svg>
