<svg width="28" height="46" viewBox="0 0 28 46" fill="none" xmlns="http://www.w3.org/2000/svg">
<path d="M14.2583 44.5516L1.69879 37.2146V22.6189L14.2583 29.9616V44.5516Z" fill="#9CF0E8"/>
<path d="M26.8123 37.2146L14.2583 44.5516V29.9616L26.8123 22.6189V37.2146Z" fill="#F8F8F8"/>
<path d="M18.4374 17.8152C16.4115 21.6884 14.2195 25.1747 14.2195 25.1747C14.2195 25.1747 12.011 21.6716 9.97953 17.7816L1.69879 22.6188L14.2583 29.9615L26.7403 22.6637L18.4374 17.8152Z" fill="#F8F8F8"/>
<path d="M14.2583 44.5516L1.69879 37.2146V22.6189L14.2583 29.9616V44.5516Z" stroke="#00B0AD" stroke-width="1.6" stroke-miterlimit="10" stroke-linejoin="round"/>
<path d="M26.8123 37.2146L14.2583 44.5516V29.9616L26.8123 22.6189V37.2146Z" stroke="#00B0AD" stroke-width="1.6" stroke-miterlimit="10" stroke-linejoin="round"/>
<path d="M18.4872 17.7032C16.4558 21.6155 14.2527 25.1243 14.2527 25.1243C14.2527 25.1243 12.0386 21.5875 10.0017 17.6639L1.69879 22.5516L14.297 29.9615L26.8122 22.602L18.4872 17.7032Z" stroke="#00B0AD" stroke-width="1.6" stroke-miterlimit="10" stroke-linejoin="round"/>
<path d="M19.6496 31.615V27.299L22.4338 25.6624V29.8606L19.6496 31.615Z" fill="#00B0AD"/>
<path d="M19.6496 27.3327L7.18976 19.323L9.71383 17.9105L22.4338 25.696L19.6496 27.3327Z" fill="#00B0AD"/>
<path d="M23.4081 10.7192C23.4081 18.9587 14.2527 25.1411 14.2527 25.1411C14.2527 25.1411 5.10297 18.9643 5.10297 10.7192C5.10297 5.56811 9.17138 1.44836 14.2583 1.44836C19.3396 1.44836 23.4081 5.56811 23.4081 10.7192Z" fill="#9CF0E8" stroke="#00B0AD" stroke-width="1.6" stroke-miterlimit="10" stroke-linecap="round" stroke-linejoin="round"/>
<path d="M14.2583 13.8076C15.9427 13.8076 17.3082 12.4248 17.3082 10.7191C17.3082 9.01346 15.9427 7.63074 14.2583 7.63074C12.5739 7.63074 11.2084 9.01346 11.2084 10.7191C11.2084 12.4248 12.5739 13.8076 14.2583 13.8076Z" fill="#F8F8F8"/>
</svg>
