<svg width="40" height="46" viewBox="0 0 40 46" fill="none" xmlns="http://www.w3.org/2000/svg">
<path d="M26.7706 32.3399C26.7706 32.3399 30.4224 29.5804 32.9072 27.7146C35.1798 26.0109 37.0113 26.4131 38.5245 27.6253C38.893 27.9213 38.9098 28.4743 38.5692 28.7983L27.2117 39.4956C26.899 39.7861 26.4914 39.9537 26.0615 39.9537H12.7441C11.7558 39.9537 10.8121 40.3615 10.1309 41.0821L6.86993 44.551" stroke="#00B0AD" stroke-width="1.6" stroke-miterlimit="10" stroke-linecap="round" stroke-linejoin="round"/>
<path d="M26.9046 34.4682C26.6812 31.34 24.431 31.0439 23.7274 31.0439" stroke="white" stroke-width="6" stroke-miterlimit="10" stroke-linecap="round" stroke-linejoin="round"/>
<path d="M17.1832 34.9877H26.4132C26.698 34.9877 26.9213 34.7475 26.9046 34.4626C26.6812 31.3344 24.431 31.0384 23.7274 31.0384H19.0984C16.9431 29.5916 15.5974 29.2899 13.0679 29.2899C10.0471 29.2899 7.61815 30.7535 4.55822 34.5967L0.817078 38.1159" stroke="#00B0AD" stroke-width="1.6" stroke-miterlimit="10" stroke-linecap="round" stroke-linejoin="round"/>
<path d="M28.066 19.3579L29.8193 22.3911H27.0162L25.6147 24.8211L23.8726 21.799" stroke="#00B0AD" stroke-width="1.6" stroke-miterlimit="10" stroke-linecap="round" stroke-linejoin="round"/>
<path d="M13.4532 19.3579L11.6999 22.3911H14.503L15.8989 24.8211L17.6466 21.7934" stroke="#00B0AD" stroke-width="1.6" stroke-miterlimit="10" stroke-linecap="round" stroke-linejoin="round"/>
<path d="M18.0431 3.527L18.2329 3.10246C19.2045 0.901555 22.3259 0.901555 23.2974 3.10246L23.4873 3.527C23.9731 4.63304 25.1178 5.2922 26.3183 5.16372L26.7817 5.11344C29.1716 4.8509 30.7351 7.56014 29.3112 9.4985L29.0376 9.87276C28.3229 10.8447 28.3229 12.1686 29.0376 13.1406L29.3112 13.5149C30.7295 15.4588 29.1716 18.1625 26.7817 17.8999L26.3183 17.8497C25.1178 17.7212 23.9731 18.3803 23.4873 19.4864L23.2974 19.9109C22.3259 22.1118 19.2045 22.1118 18.2329 19.9109L18.0431 19.4864C17.5573 18.3803 16.4126 17.7212 15.2121 17.8497L14.7486 17.8999C12.3588 18.1625 10.7953 15.4532 12.2192 13.5149L12.4928 13.1406C13.2075 12.1686 13.2075 10.8447 12.4928 9.87276L12.2192 9.4985C10.8009 7.55455 12.3588 4.8509 14.7486 5.11344L15.2121 5.16372C16.407 5.2922 17.5517 4.62746 18.0431 3.527Z" fill="#9CF0E8" stroke="#00B0AD" stroke-width="1.6" stroke-miterlimit="10" stroke-linecap="round" stroke-linejoin="round"/>
<path d="M20.7624 13.4367L18.8025 14.8612C18.4898 15.0902 18.0654 14.7829 18.1883 14.4143L18.9421 12.1128L16.9822 10.694C16.6695 10.4649 16.8314 9.97335 17.2167 9.97335L19.6401 9.97894L20.3827 7.6719C20.5 7.30322 21.0249 7.30322 21.1421 7.6719L21.8848 9.97894L24.3081 9.97335C24.6934 9.97335 24.8553 10.4705 24.5426 10.694L22.5827 12.1128L23.3365 14.4143C23.4594 14.7829 23.035 15.0902 22.7223 14.8612L20.7624 13.4367Z" fill="white"/>
</svg>
