<svg width="41" height="46" viewBox="0 0 41 46" fill="none" xmlns="http://www.w3.org/2000/svg">
<path d="M27.0197 1.44983C25.055 3.97986 21.2463 5.69465 16.8632 5.69465V8.47768C16.8632 15.8316 20.9534 22.2354 27.0197 25.6763C33.0861 22.2354 37.1762 15.8316 37.1762 8.47768V5.69465C32.7988 5.69465 28.9901 3.97986 27.0197 1.44983Z" fill="#9CF0E8" stroke="#00B0AD" stroke-width="1.6" stroke-miterlimit="10" stroke-linecap="round" stroke-linejoin="round"/>
<path d="M30.5699 10.2881L25.9569 14.7972L23.5614 12.4527L22.5159 13.4703L25.9569 16.838L31.6096 11.3057L30.5699 10.2881Z" fill="#F8F8F8"/>
<path d="M27.5309 32.26C27.5309 32.26 31.2879 29.4826 33.8443 27.6047C36.1824 25.8899 38.0666 26.2947 39.6234 27.5148C40.0026 27.8128 40.0198 28.3694 39.6694 28.6955L27.9848 39.4565C27.6631 39.7489 27.2437 39.9175 26.8014 39.9175H13.1004C12.0836 39.9175 11.1127 40.328 10.4119 41.0532L7.05701 44.5447" stroke="#00B0AD" stroke-width="1.6" stroke-miterlimit="10" stroke-linecap="round" stroke-linejoin="round"/>
<path d="M27.6689 34.3964C27.4391 31.2479 25.124 30.95 24.4001 30.95" stroke="#F8F8F8" stroke-width="6" stroke-miterlimit="10" stroke-linecap="round" stroke-linejoin="round"/>
<path d="M17.6674 34.9249H27.1633C27.4563 34.9249 27.6861 34.6832 27.6688 34.3964C27.4391 31.2479 25.124 30.95 24.4001 30.95H19.6378C17.4204 29.4938 16.0359 29.1902 13.4336 29.1902C10.3257 29.1902 7.82682 30.6632 4.67875 34.5314L0.829834 38.0734" stroke="#00B0AD" stroke-width="1.6" stroke-miterlimit="10" stroke-linecap="round" stroke-linejoin="round"/>
</svg>
